<?xml version="1.0" standalone="no"?>
<!DOCTYPE svg PUBLIC "-//W3C//DTD SVG 1.1//EN" "http://www.w3.org/Graphics/SVG/1.1/DTD/svg11.dtd" >
<svg xmlns="http://www.w3.org/2000/svg" xmlns:xlink="http://www.w3.org/1999/xlink" version="1.1">
<metadata>
Created by FontForge 20170731 at Wed Feb  1 08:45:12 2017
 By Aleksey,,,
</metadata>
<defs>
<font id="HYPE" horiz-adv-x="833" >
  <font-face 
    font-family="HYPE"
    font-weight="400"
    font-stretch="normal"
    units-per-em="1000"
    panose-1="0 0 0 0 0 0 0 0 0 0"
    ascent="750"
    descent="-250"
    x-height="772"
    cap-height="774"
    bbox="0 -67 987 789"
    underline-thickness="50"
    underline-position="-150"
    unicode-range="U+000D-007A"
  />
<missing-glyph horiz-adv-x="500" 
 />
    <glyph glyph-name=".notdef" horiz-adv-x="500" 
 />
    <glyph glyph-name=".null" horiz-adv-x="0" 
 />
    <glyph glyph-name="nonmarkingreturn" unicode="&#xd;" horiz-adv-x="500" 
 />
    <glyph glyph-name="NULL" horiz-adv-x="0" 
 />
    <glyph glyph-name="NULL" horiz-adv-x="0" 
 />
    <glyph glyph-name="space" unicode=" " horiz-adv-x="500" 
 />
    <glyph glyph-name="exclam" unicode="!" horiz-adv-x="821" 
d="M410 154q38 0 64 -26q27 -27 27 -64q0 -38 -27 -63q-26 -27 -64 -27q-36 0 -64 26q-26 28 -26 64t26 64q28 26 64 26zM337 764h145v-547h-145v547z" />
    <glyph glyph-name="quotedbl" unicode="&#x22;" horiz-adv-x="420" 
d="M99 777l103 -52l-130 -222l-72 34zM317 777l103 -52l-130 -222l-72 34z" />
    <glyph glyph-name="numbersign" unicode="#" 
 />
    <glyph glyph-name="dollar" unicode="$" horiz-adv-x="840" 
 />
    <glyph glyph-name="percent" unicode="%" 
 />
    <glyph glyph-name="ampersand" unicode="&#x26;" 
 />
    <glyph glyph-name="quotesingle" unicode="'" horiz-adv-x="204" 
d="M100 779l103 -52l-130 -222l-72 34z" />
    <glyph glyph-name="parenleft" unicode="(" 
 />
    <glyph glyph-name="parenright" unicode=")" 
 />
    <glyph glyph-name="asterisk" unicode="*" 
 />
    <glyph glyph-name="plus" unicode="+" 
 />
    <glyph glyph-name="comma" unicode="," horiz-adv-x="402" 
d="M199 239l103 -52l-130 -222l-72 34z" />
    <glyph glyph-name="hyphen" unicode="-" horiz-adv-x="826" 
d="M279 473h268v-134h-268v134z" />
    <glyph glyph-name="period" unicode="." horiz-adv-x="241" 
d="M121 137q34 0 58 -24t24 -58t-24 -59q-24 -24 -58 -24q-35 0 -59 24q-24 25 -24 59t24 58t59 24z" />
    <glyph glyph-name="slash" unicode="/" 
 />
    <glyph glyph-name="zero" unicode="0" 
 />
    <glyph glyph-name="one" unicode="1" 
 />
    <glyph glyph-name="two" unicode="2" 
 />
    <glyph glyph-name="three" unicode="3" 
 />
    <glyph glyph-name="four" unicode="4" 
 />
    <glyph glyph-name="five" unicode="5" 
 />
    <glyph glyph-name="six" unicode="6" 
 />
    <glyph glyph-name="seven" unicode="7" 
 />
    <glyph glyph-name="eight" unicode="8" 
 />
    <glyph glyph-name="nine" unicode="9" 
 />
    <glyph glyph-name="colon" unicode=":" 
d="M328 667q34 0 58 -24t24 -59q0 -33 -24 -58q-24 -24 -58 -24q-35 0 -59 24t-24 58q0 35 24 59t59 24zM328 229q34 0 58 -24t24 -58t-24 -59q-24 -24 -58 -24q-35 0 -59 24q-24 25 -24 59t24 58t59 24z" />
    <glyph glyph-name="semicolon" unicode=";" 
d="M226 241l101 -53l-129 -222l-73 35zM235 682q34 0 58 -24t24 -59q0 -34 -24 -58t-58 -24q-35 0 -59 24t-24 58q0 35 24 59t59 24z" />
    <glyph glyph-name="less" unicode="&#x3c;" 
 />
    <glyph glyph-name="equal" unicode="=" 
 />
    <glyph glyph-name="greater" unicode="&#x3e;" 
 />
    <glyph glyph-name="question" unicode="?" horiz-adv-x="788" 
d="M372 160q38 0 66 -26q27 -27 27 -64t-27 -64t-65 -27q-39 0 -64 27q-27 27 -27 64q0 36 26 64q28 26 64 26zM430 221h-135v77q0 40 15 76t43 65l86 89q18 19 18.5 45t-16.5 46q-18 21 -47 23h-3q-31 0 -52 -26l-40 -50l-105 72l50 72q5 7 11 13.5t13 11.5
q28 22 61.5 32.5t69.5 8.5q42 -2 78.5 -19t63.5 -47q54 -60 52 -139q-2 -80 -57 -137l-87 -89q-19 -21 -19 -47v-77z" />
    <glyph glyph-name="A" unicode="A" 
d="M339 772h143l301 -775h-145l-66 170h-317l-65 -170h-144zM306 302h214l-109 279z" />
    <glyph glyph-name="B" unicode="B" horiz-adv-x="921" 
d="M684 387q33 -32 50.5 -74t17.5 -89t-17.5 -89t-50.5 -75q-23 -23 -50.5 -38t-57.5 -23h-313v772h282q61 -16 104 -59q32 -33 49.5 -74.5t17.5 -88.5q0 -81 -51 -144q5 -5 9.5 -9t9.5 -9zM398 455h89q19 0 36.5 7.5t30 20t20 29.5t7.5 37q0 19 -7.5 36.5t-20 30.5
t-30 20.5t-36.5 7.5h-89v-189zM521 128q40 0 68 28t28 68t-28 68t-68 28h-123v-192h123z" />
    <glyph glyph-name="C" unicode="C" horiz-adv-x="927" 
d="M534 2q-77 0 -146 28q-71 28 -128 85q-54 54 -85 128q-14 35 -21 71t-7 74q0 73 28 146q31 74 85 127q57 57 128 85q72 29 146 29q75 0 145 -29q71 -28 128 -85l-96 -95q-37 37 -83 55t-94.5 18t-94.5 -18t-83 -55q-36 -36 -55 -81.5t-19 -96.5t19 -96.5t55 -81.5
q35 -35 81 -54t97 -19t96.5 19t80.5 54l96 -95q-57 -57 -128 -85q-68 -28 -145 -28z" />
    <glyph glyph-name="D" unicode="D" horiz-adv-x="865" 
d="M347 -1h-207v769h207q79 0 150 -31q68 -28 122 -82t82 -122q31 -74 31 -150t-31 -150q-28 -67 -82 -122q-54 -54 -122 -82q-72 -30 -150 -30zM275 134h72q52 0 97.5 19.5t79.5 53.5t53.5 79.5t19.5 96.5q0 52 -19.5 97.5t-53.5 79.5t-79.5 53.5t-97.5 19.5h-72v-499z" />
    <glyph glyph-name="E" unicode="E" horiz-adv-x="822" 
d="M622 2h-287v-1h-135v772h422v-128h-287v-170h287v-135h-287v-203h287v-135v0z" />
    <glyph glyph-name="F" unicode="F" horiz-adv-x="893" 
d="M629 340h-287v-339h-135v772h493v-128h-358v-170h287v-135v0z" />
    <glyph glyph-name="G" unicode="G" horiz-adv-x="956" 
d="M791 114h-2l1 -1q-57 -57 -128 -85q-68 -28 -145 -28q-78 0 -146 28q-71 28 -128 85q-54 54 -85 128q-14 35 -21 71t-7 74q0 73 28 146q31 74 85 127q57 57 128 85q70 29 146 29q75 0 145 -29q36 -14 61 -34.5t53 -48.5l-96 -95q-37 37 -81 55t-89.5 17.5t-89.5 -19
t-81 -55.5q-36 -36 -55 -81.5t-19 -96.5t19 -96.5t55 -81.5q35 -35 81 -54t97 -19q77 0 139 41v81h-135v135h270v-278z" />
    <glyph glyph-name="H" unicode="H" horiz-adv-x="875" 
d="M579 771h135v-772h-135v348h-288v-348h-135v772h135v-289h288v289v0z" />
    <glyph glyph-name="I" unicode="I" horiz-adv-x="484" 
d="M170 774h135v-772h-135v772v0z" />
    <glyph glyph-name="J" unicode="J" horiz-adv-x="922" 
d="M449 2q-52 0 -99.5 19.5t-84.5 56.5q-38 37 -57.5 84.5t-19.5 100.5h135q0 -26 10 -49t27 -40t40 -27t49 -10t49 10t40 27t27 40t10 49v509h135v-509q0 -53 -19.5 -100.5t-56.5 -84.5t-84.5 -56.5t-100.5 -19.5z" />
    <glyph glyph-name="K" unicode="K" horiz-adv-x="940" 
d="M746 773l-292 -372l314 -400h-172l-227 291l-6 -8v-283h-135v772h135v-255l6 -7l205 262h172v0z" />
    <glyph glyph-name="L" unicode="L" horiz-adv-x="822" 
d="M629 0h-287v-1h-135v772h135v-636h287v-135v0z" />
    <glyph glyph-name="M" unicode="M" horiz-adv-x="980" 
d="M664 772h135v-772h-135v538l-169 -240l-171 242v-540h-135v772h136l170 -240l169 240v0v0z" />
    <glyph glyph-name="N" unicode="N" horiz-adv-x="958" 
d="M648 770h135v-772h-135v3l-340 523v-526h-135v772h135v0h1v0l339 -521v521v0z" />
    <glyph glyph-name="O" unicode="O" horiz-adv-x="1000" 
d="M498 -30q-83 0 -159 33q-36 15 -68.5 36.5t-60.5 50.5q-29 28 -50.5 60.5t-36.5 68.5q-33 76 -33 159q0 82 33 159q15 36 36.5 68.5t50.5 60.5q57 57 129 87q74 32 159 32t159 -32q72 -30 129 -87t87 -129q32 -74 32 -159t-32 -159q-30 -72 -87 -129q-28 -29 -60.5 -50.5
t-68.5 -36.5q-77 -33 -159 -33zM498 650q-56 0 -106 -21.5t-87 -58.5t-58.5 -86.5t-21.5 -105.5t21.5 -106t58.5 -87t87 -58.5t106 -21.5t105.5 21.5t86.5 58.5t58.5 87t21.5 106t-21.5 105.5t-58.5 86.5t-86.5 58.5t-105.5 21.5z" />
    <glyph glyph-name="P" unicode="P" horiz-adv-x="854" 
d="M520 770q55 -17 94 -57q33 -32 50.5 -74t17.5 -88t-17.5 -88t-50.5 -74q-26 -26 -58.5 -43t-69.5 -22l-123 -2v-321h-135v769h292zM452 457q19 0 36.5 7.5t30.5 20t20.5 29.5t7.5 37q0 19 -7.5 36.5t-20.5 30t-30.5 20t-36.5 7.5h-89v-188h89z" />
    <glyph glyph-name="Q" unicode="Q" horiz-adv-x="1188" 
d="M917 -67l-185 111q-68 -28 -147 -28q-78 0 -150 30q-71 29 -123 83q-27 26 -47.5 57t-35.5 66q-30 70 -30 150q0 79 30 151q15 35 35.5 65.5t47.5 56.5q52 54 123 83q74 31 150 31q77 0 151 -31q68 -28 123 -83q54 -54 82 -122q31 -71 31 -151q0 -39 -7.5 -77t-23.5 -73
q-29 -70 -82 -123l-2 -2l130 -78zM334 402q0 -52 20 -98t54 -80t79.5 -53.5t97.5 -19.5t98 19.5t80 53.5t54 80t20 98t-20 98t-54 80t-80 54t-98 20t-97.5 -20t-79.5 -54t-54 -80t-20 -98z" />
    <glyph glyph-name="R" unicode="R" horiz-adv-x="911" 
d="M548 325q-5 -3 -11 -5.5t-11 -4.5l201 -314h-160l-193 300h-44v-300h-135v772h330q53 -17 92 -56q32 -33 49.5 -75t17.5 -89q0 -45 -16.5 -89.5t-47.5 -80.5q-33 -38 -72 -58zM453 436q23 0 40 12.5t25 22.5q15 17 23 39t8 43q0 20 -7.5 37.5t-20.5 31t-30.5 21
t-37.5 7.5h-123v-214h123z" />
    <glyph glyph-name="S" unicode="S" horiz-adv-x="840" 
d="M400 -14q-43 0 -80 15q-40 16 -73 49l-88 90l96 94l88 -90q11 -11 26 -17.5t32 -5.5q34 0 57 25q21 23 22 52.5t-19 52.5l-200 175l-3 3q-15 17 -25.5 35.5t-18.5 38.5q-14 42 -11 83q3 45 22 81q19 38 53 69l3 2q32 28 76 42q42 12 83 8q22 -2 42 -8t39 -16
q40 -21 66 -55l65 -81l-106 -84l-64 80q-22 27 -55 30q-32 3 -59 -19l-2 -2q-26 -22 -28 -55t18 -56l200 -175l3 -3q27 -30 41.5 -67t13.5 -78q0 -41 -14.5 -78t-42.5 -66q-15 -17 -33 -30t-38 -21q-39 -18 -83 -18h-3z" />
    <glyph glyph-name="T" unicode="T" horiz-adv-x="871" 
d="M179 771h513v-131h-191v-641h-135v641h-187v131v0z" />
    <glyph glyph-name="U" unicode="U" horiz-adv-x="964" 
d="M492 -23q-57 0 -108 21t-92 61q-40 41 -61 92t-21 108v515h135v-515q0 -30 11.5 -57t31.5 -47t47 -31.5t57 -11.5t57 11.5t47 31.5t31.5 47t11.5 57v515h135v-515q0 -57 -21 -108t-61 -92q-41 -40 -92 -61t-108 -21z" />
    <glyph glyph-name="V" unicode="V" horiz-adv-x="1137" 
d="M644 0h-142l-302 773h145l227 -584l221 584h144l-293 -773v0z" />
    <glyph glyph-name="W" unicode="W" horiz-adv-x="1010" 
d="M335 1h-135v772h135v-538l170 240l170 -241v539h135v-772h-136l-169 240l-170 -240v0v0z" />
    <glyph glyph-name="X" unicode="X" horiz-adv-x="1093" 
d="M881 772l-253 -377l265 -395h-163l-183 274l-184 -274h-163l265 395l-253 377h163l172 -256l171 256h163v0z" />
    <glyph glyph-name="Y" unicode="Y" horiz-adv-x="892" 
d="M580 773h156l-251 -435v-337h-135v340l-250 432h156l159 -275h6l159 275v0z" />
    <glyph glyph-name="Z" unicode="Z" horiz-adv-x="891" 
d="M697 2h-349v-1h-142l281 643h-271v129h470l-281 -641h292v-130v0z" />
    <glyph glyph-name="a" unicode="a" 
d="M482 772l301 -775h-145l-66 170h-317l-65 -170h-144l293 775h143zM520 302l-109 279l-105 -279h214z" />
    <glyph glyph-name="b" unicode="b" horiz-adv-x="921" 
d="M684 387q33 -32 50.5 -74t17.5 -89t-17.5 -89t-50.5 -75q-23 -23 -50.5 -38t-57.5 -23h-313v772h282q61 -16 104 -59q32 -33 49.5 -74.5t17.5 -88.5q0 -81 -51 -144q5 -5 9.5 -9t9.5 -9zM398 455h89q19 0 36.5 7.5t30 20t20 29.5t7.5 37q0 19 -7.5 36.5t-20 30.5
t-30 20.5t-36.5 7.5h-89v-189zM521 128q40 0 68 28t28 68t-28 68t-68 28h-123v-192h123z" />
    <glyph glyph-name="c" unicode="c" horiz-adv-x="927" 
d="M534 2q-77 0 -146 28q-71 28 -128 85q-54 54 -85 128q-14 35 -21 71t-7 74q0 73 28 146q31 74 85 127q57 57 128 85q72 29 146 29q75 0 145 -29q71 -28 128 -85l-96 -95q-37 37 -83 55t-94.5 18t-94.5 -18t-83 -55q-36 -36 -55 -81.5t-19 -96.5t19 -96.5t55 -81.5
q35 -35 81 -54t97 -19t96.5 19t80.5 54l96 -95q-57 -57 -128 -85q-68 -28 -145 -28z" />
    <glyph glyph-name="d" unicode="d" horiz-adv-x="865" 
d="M347 -1h-207v769h207q79 0 150 -31q68 -28 122 -82t82 -122q31 -74 31 -150t-31 -150q-28 -67 -82 -122q-54 -54 -122 -82q-72 -30 -150 -30zM275 134h72q52 0 97.5 19.5t79.5 53.5t53.5 79.5t19.5 96.5q0 52 -19.5 97.5t-53.5 79.5t-79.5 53.5t-97.5 19.5h-72v-499z" />
    <glyph glyph-name="e" unicode="e" horiz-adv-x="822" 
d="M622 2h-287v-1h-135v772h422v-128h-287v-170h287v-135h-287v-203h287v-135z" />
    <glyph glyph-name="f" unicode="f" horiz-adv-x="893" 
d="M629 340h-287v-339h-135v772h493v-128h-358v-170h287v-135z" />
    <glyph glyph-name="g" unicode="g" horiz-adv-x="956" 
d="M791 114h-2l1 -1q-57 -57 -128 -85q-68 -28 -145 -28q-78 0 -146 28q-71 28 -128 85q-54 54 -85 128q-14 35 -21 71t-7 74q0 73 28 146q31 74 85 127q57 57 128 85q70 29 146 29q75 0 145 -29q36 -14 61 -34.5t53 -48.5l-96 -95q-37 37 -81 55t-89.5 17.5t-89.5 -19
t-81 -55.5q-36 -36 -55 -81.5t-19 -96.5t19 -96.5t55 -81.5q35 -35 81 -54t97 -19q77 0 139 41v81h-135v135h270v-278z" />
    <glyph glyph-name="h" unicode="h" horiz-adv-x="875" 
d="M714 771v-772h-135v348h-288v-348h-135v772h135v-289h288v289h135z" />
    <glyph glyph-name="i" unicode="i" horiz-adv-x="484" 
d="M305 774v-772h-135v772h135z" />
    <glyph glyph-name="j" unicode="j" horiz-adv-x="922" 
d="M449 2q-52 0 -99.5 19.5t-84.5 56.5q-38 37 -57.5 84.5t-19.5 100.5h135q0 -26 10 -49t27 -40t40 -27t49 -10t49 10t40 27t27 40t10 49v509h135v-509q0 -53 -19.5 -100.5t-56.5 -84.5t-84.5 -56.5t-100.5 -19.5z" />
    <glyph glyph-name="k" unicode="k" horiz-adv-x="940" 
d="M454 401l314 -400h-172l-227 291l-6 -8v-283h-135v772h135v-255l6 -7l205 262h172z" />
    <glyph glyph-name="l" unicode="l" horiz-adv-x="822" 
d="M342 0v-1h-135v772h135v-636h287v-135h-287z" />
    <glyph glyph-name="m" unicode="m" horiz-adv-x="980" 
d="M799 772v-772h-135v538l-169 -240l-171 242v-540h-135v772h136l170 -240l169 240h135z" />
    <glyph glyph-name="n" unicode="n" horiz-adv-x="958" 
d="M783 770v-772h-135v3l-340 523v-526h-135v772h135v0h1v0l339 -521v521h135z" />
    <glyph glyph-name="o" unicode="o" horiz-adv-x="1000" 
d="M498 -30q-83 0 -159 33q-36 15 -68.5 36.5t-60.5 50.5q-29 28 -50.5 60.5t-36.5 68.5q-33 76 -33 159q0 82 33 159q15 36 36.5 68.5t50.5 60.5q57 57 129 87q74 32 159 32t159 -32q72 -30 129 -87t87 -129q32 -74 32 -159t-32 -159q-30 -72 -87 -129q-28 -29 -60.5 -50.5
t-68.5 -36.5q-77 -33 -159 -33zM498 650q-56 0 -106 -21.5t-87 -58.5t-58.5 -86.5t-21.5 -105.5t21.5 -106t58.5 -87t87 -58.5t106 -21.5t105.5 21.5t86.5 58.5t58.5 87t21.5 106t-21.5 105.5t-58.5 86.5t-86.5 58.5t-105.5 21.5z" />
    <glyph glyph-name="p" unicode="p" horiz-adv-x="854" 
d="M520 770q55 -17 94 -57q33 -32 50.5 -74t17.5 -88t-17.5 -88t-50.5 -74q-26 -26 -58.5 -43t-69.5 -22l-123 -2v-321h-135v769h292zM452 457q19 0 36.5 7.5t30.5 20t20.5 29.5t7.5 37q0 19 -7.5 36.5t-20.5 30t-30.5 20t-36.5 7.5h-89v-188h89z" />
    <glyph glyph-name="q" unicode="q" horiz-adv-x="1188" 
d="M917 -67l-185 111q-68 -28 -147 -28q-78 0 -150 30q-71 29 -123 83q-27 26 -47.5 57t-35.5 66q-30 70 -30 150q0 79 30 151q15 35 35.5 65.5t47.5 56.5q52 54 123 83q74 31 150 31q77 0 151 -31q68 -28 123 -83q54 -54 82 -122q31 -71 31 -151q0 -39 -7.5 -77t-23.5 -73
q-29 -70 -82 -123l-2 -2l130 -78zM334 402q0 -52 20 -98t54 -80t79.5 -53.5t97.5 -19.5t98 19.5t80 53.5t54 80t20 98t-20 98t-54 80t-80 54t-98 20t-97.5 -20t-79.5 -54t-54 -80t-20 -98z" />
    <glyph glyph-name="r" unicode="r" horiz-adv-x="911" 
d="M548 325q-5 -3 -11 -5.5t-11 -4.5l201 -314h-160l-193 300h-44v-300h-135v772h330q53 -17 92 -56q32 -33 49.5 -75t17.5 -89q0 -45 -16.5 -89.5t-47.5 -80.5q-33 -38 -72 -58zM453 436q23 0 40 12.5t25 22.5q15 17 23 39t8 43q0 20 -7.5 37.5t-20.5 31t-30.5 21
t-37.5 7.5h-123v-214h123z" />
    <glyph glyph-name="s" unicode="s" horiz-adv-x="840" 
d="M400 -14q-43 0 -80 15q-40 16 -73 49l-88 90l96 94l88 -90q11 -11 26 -17.5t32 -5.5q34 0 57 25q21 23 22 52.5t-19 52.5l-200 175l-3 3q-15 17 -25.5 35.5t-18.5 38.5q-14 42 -11 83q3 45 22 81q19 38 53 69l3 2q32 28 76 42q42 12 83 8q22 -2 42 -8t39 -16
q40 -21 66 -55l65 -81l-106 -84l-64 80q-22 27 -55 30q-32 3 -59 -19l-2 -2q-26 -22 -28 -55t18 -56l200 -175l3 -3q27 -30 41.5 -67t13.5 -78q0 -41 -14.5 -78t-42.5 -66q-15 -17 -33 -30t-38 -21q-39 -18 -83 -18h-3z" />
    <glyph glyph-name="t" unicode="t" horiz-adv-x="871" 
d="M692 771v-131h-191v-641h-135v641h-187v131h513z" />
    <glyph glyph-name="u" unicode="u" horiz-adv-x="964" 
d="M492 -23q-57 0 -108 21t-92 61q-40 41 -61 92t-21 108v515h135v-515q0 -30 11.5 -57t31.5 -47t47 -31.5t57 -11.5t57 11.5t47 31.5t31.5 47t11.5 57v515h135v-515q0 -57 -21 -108t-61 -92q-41 -40 -92 -61t-108 -21z" />
    <glyph glyph-name="v" unicode="v" horiz-adv-x="1137" 
d="M502 0l-302 773h145l227 -584l221 584h144l-293 -773h-142z" />
    <glyph glyph-name="w" unicode="w" horiz-adv-x="1010" 
d="M200 1v772h135v-538l170 240l170 -241v539h135v-772h-136l-169 240l-170 -240h-135z" />
    <glyph glyph-name="x" unicode="x" horiz-adv-x="1093" 
d="M628 395l265 -395h-163l-183 274l-184 -274h-163l265 395l-253 377h163l172 -256l171 256h163z" />
    <glyph glyph-name="y" unicode="y" horiz-adv-x="892" 
d="M736 773l-251 -435v-337h-135v340l-250 432h156l159 -275h6l159 275h156z" />
    <glyph glyph-name="z" unicode="z" horiz-adv-x="891" 
d="M348 2v-1h-142l281 643h-271v129h470l-281 -641h292v-130h-349z" />
    </font>
</defs>
</svg>
